<svg xmlns="http://www.w3.org/2000/svg" viewBox="0 0 64 64" role="img" aria-label="Innsigle seal, human-authored">
  <title>Innsigle — human-authored</title>
  <defs>
    <clipPath id="innsigle-face-h">
      <circle cx="32" cy="32" r="30"/>
    </clipPath>
  </defs>
  <circle cx="32" cy="32" r="31.5" fill="#141210"/>
  <circle cx="32" cy="32" r="30" fill="none" stroke="#e4dccf" stroke-width="2"/>
  <g fill="#e4dccf" clip-path="url(#innsigle-face-h)">
    <circle cx="32" cy="4.8" r="1.15"/>
    <circle cx="40.5" cy="6.5" r="1.15"/>
    <circle cx="47.5" cy="11.2" r="1.15"/>
    <circle cx="52.2" cy="18.2" r="1.15"/>
    <circle cx="54.5" cy="26.5" r="1.15"/>
    <circle cx="54.5" cy="37.5" r="1.15"/>
    <circle cx="52.2" cy="45.8" r="1.15"/>
    <circle cx="47.5" cy="52.8" r="1.15"/>
    <circle cx="40.5" cy="57.5" r="1.15"/>
    <circle cx="32" cy="59.2" r="1.15"/>
    <circle cx="23.5" cy="57.5" r="1.15"/>
    <circle cx="16.5" cy="52.8" r="1.15"/>
    <circle cx="11.8" cy="45.8" r="1.15"/>
    <circle cx="9.5" cy="37.5" r="1.15"/>
    <circle cx="9.5" cy="26.5" r="1.15"/>
    <circle cx="11.8" cy="18.2" r="1.15"/>
    <circle cx="16.5" cy="11.2" r="1.15"/>
    <circle cx="23.5" cy="6.5" r="1.15"/>
  </g>
  <circle cx="32" cy="32" r="22.5" fill="none" stroke="#e4dccf" stroke-width="1.35"/>
  <!-- Main monogram raised (shorter stave for countermark clearance) -->
  <g fill="none" stroke="#e4dccf" stroke-width="2.5" stroke-linecap="square" stroke-linejoin="miter">
    <path d="M32 13 V36"/>
    <path d="M23.5 20.5 L32 13 L40.5 20.5"/>
    <path d="M24.5 27.5 H39.5"/>
    <path d="M26.5 34 H37.5"/>
    <path d="M32 23 L35.8 27 L32 31 L28.2 27 Z" stroke-width="2.1"/>
  </g>
  <!-- Hallmark-style countermark: H (human-authored) — solid punch, not color code -->
  <rect x="24" y="40.5" width="16" height="11" rx="1.2" fill="#e4dccf"/>
  <path d="M28.2 42.8 v6.8 M35.8 42.8 v6.8 M28.2 46.2 h7.6" fill="none" stroke="#141210" stroke-width="1.85" stroke-linecap="square"/>
</svg>
