<svg xmlns="http://www.w3.org/2000/svg" viewBox="0 0 64 64" role="img" aria-label="Innsigle cartouche seal, model-primary">
  <title>Innsigle cartouche — model-primary</title>
  <circle cx="32" cy="32" r="31.5" fill="#141210"/>
  <circle cx="32" cy="32" r="29.5" fill="none" stroke="#e4dccf" stroke-width="1.75"/>
  <rect x="14" y="12" width="36" height="40" rx="3" fill="#e4dccf"/>
  <rect x="17" y="15" width="30" height="24" rx="1.5" fill="none" stroke="#141210" stroke-width="1.3"/>
  <g fill="none" stroke="#141210" stroke-width="2.2" stroke-linecap="square" stroke-linejoin="miter">
    <path d="M32 18 V34"/>
    <path d="M24.5 24.5 L32 18 L39.5 24.5"/>
    <path d="M25.5 29.5 H38.5"/>
    <path d="M32 26 L35 29.5 L32 33 L29 29.5 Z" stroke-width="1.9"/>
  </g>
  <rect x="22" y="41" width="20" height="9" rx="1" fill="#141210"/>
  <path d="M32 42.6 L28.2 49.2 h1.9l.65-1.4h2.5l.65 1.4h1.9 L32 42.6zm0 2.4 l.8 1.75h-1.6l.8-1.75z" fill="#e4dccf"/>
</svg>
